<svg width="10" height="19" viewBox="0 0 10 19" fill="none" xmlns="http://www.w3.org/2000/svg">
<path fill-rule="evenodd" clip-rule="evenodd" d="M9.62343 0.357993L7.22488 0.354248C4.5302 0.354248 2.78878 2.09296 2.78878 4.78407V6.82652H0.377148C0.168754 6.82652 0 6.99093 0 7.19374V10.153C0 10.3558 0.168947 10.52 0.377148 10.52H2.78878V17.9872C2.78878 18.19 2.95753 18.3542 3.16593 18.3542H6.31242C6.52081 18.3542 6.68956 18.1898 6.68956 17.9872V10.52H9.50932C9.71772 10.52 9.88647 10.3558 9.88647 10.153L9.88763 7.19374C9.88763 7.09636 9.84779 7.0031 9.77717 6.93419C9.70656 6.86528 9.61034 6.82652 9.51029 6.82652H6.68956V5.09511C6.68956 4.26293 6.89334 3.84047 8.00727 3.84047L9.62304 3.83991C9.83125 3.83991 10 3.67549 10 3.47288V0.725023C10 0.522595 9.83144 0.358368 9.62343 0.357993Z" fill="white"/>
</svg>
