<svg width="18" height="18" viewBox="0 0 18 18" fill="none" xmlns="http://www.w3.org/2000/svg">
<path fill-rule="evenodd" clip-rule="evenodd" d="M9.00002 0.854248C11.3085 0.854248 11.5979 0.864033 12.5045 0.905399C13.4093 0.946664 14.0272 1.09037 14.5678 1.3005C15.1268 1.51769 15.6008 1.80834 16.0734 2.28088C16.5459 2.75345 16.8366 3.22747 17.0538 3.78643C17.2639 4.32709 17.4076 4.94498 17.4488 5.84971C17.4902 6.75632 17.5 7.04579 17.5 9.35427C17.5 11.6627 17.4902 11.9522 17.4488 12.8588C17.4076 13.7635 17.2639 14.3814 17.0538 14.9221C16.8366 15.481 16.5459 15.955 16.0734 16.4276C15.6008 16.9002 15.1268 17.1908 14.5678 17.408C14.0272 17.6181 13.4093 17.7618 12.5045 17.8031C11.5979 17.8445 11.3085 17.8542 9.00002 17.8542C6.69154 17.8542 6.40208 17.8445 5.49546 17.8031C4.59073 17.7618 3.97284 17.6181 3.43218 17.408C2.87323 17.1908 2.3992 16.9002 1.92663 16.4276C1.45409 15.955 1.16345 15.481 0.946256 14.9221C0.736118 14.3814 0.592416 13.7635 0.551151 12.8588C0.509785 11.9522 0.5 11.6627 0.5 9.35427C0.5 7.04579 0.509785 6.75632 0.551151 5.84971C0.592416 4.94498 0.736118 4.32709 0.946256 3.78643C1.16345 3.22747 1.45409 2.75345 1.92663 2.28088C2.3992 1.80834 2.87323 1.51769 3.43218 1.3005C3.97284 1.09037 4.59073 0.946664 5.49546 0.905399C6.40208 0.864033 6.69154 0.854248 9.00002 0.854248ZM8.99734 12.184C10.5616 12.184 11.8298 10.9159 11.8298 9.35158C11.8298 7.78725 10.5616 6.51913 8.99734 6.51913C7.433 6.51913 6.16488 7.78725 6.16488 9.35158C6.16488 10.9159 7.433 12.184 8.99734 12.184ZM8.99734 4.98808C11.4072 4.98808 13.3608 6.94166 13.3608 9.35158C13.3608 11.7615 11.4072 13.7151 8.99734 13.7151C6.58742 13.7151 4.63383 11.7615 4.63383 9.35158C4.63383 6.94166 6.58742 4.98808 8.99734 4.98808ZM14.8556 4.72649C14.8556 5.30026 14.3904 5.76536 13.8166 5.76536C13.2429 5.76536 12.7778 5.30026 12.7778 4.72649C12.7778 4.15272 13.2429 3.68758 13.8166 3.68758C14.3904 3.68758 14.8556 4.15272 14.8556 4.72649Z" fill="white"/>
</svg>
