<svg width="40" height="41" viewBox="0 0 40 41" fill="none" xmlns="http://www.w3.org/2000/svg">
<path opacity="0.5" d="M20 0.854248C30.7696 0.854248 39.5 9.5847 39.5 20.3542C39.5 31.1238 30.7696 39.8542 20 39.8542C9.23045 39.8542 0.5 31.1238 0.5 20.3542C0.5 9.5847 9.23045 0.854248 20 0.854248Z" stroke="#D8BFFF"/>
<path fill-rule="evenodd" clip-rule="evenodd" d="M20 18.5068L16.311 22.2144C16.1255 22.4009 15.8247 22.4009 15.6392 22.2144C15.4536 22.028 15.4536 21.7257 15.6392 21.5392L19.6641 17.4941C19.8496 17.3076 20.1504 17.3076 20.3359 17.4941L24.3608 21.5392C24.5464 21.7257 24.5464 22.028 24.3608 22.2144C24.1753 22.4009 23.8745 22.4009 23.689 22.2144L20 18.5068Z" fill="white"/>
</svg>
