<svg width="18" height="16" viewBox="0 0 18 16" fill="none" xmlns="http://www.w3.org/2000/svg">
<path fill-rule="evenodd" clip-rule="evenodd" d="M17.979 2.71709C17.9532 2.68638 17.9106 2.67596 17.8743 2.69271C17.3361 2.9337 16.77 3.10695 16.1869 3.2093C16.8059 2.73923 17.2672 2.08828 17.5037 1.34186C17.5151 1.30613 17.5033 1.26705 17.4744 1.24378C17.4453 1.22052 17.4049 1.21755 17.373 1.23671C16.6758 1.65412 15.9206 1.94833 15.1276 2.11154C14.4248 1.37535 13.4435 0.954224 12.4278 0.954224C10.3623 0.954224 8.68211 2.65028 8.68211 4.73508C8.68211 4.98724 8.70626 5.23697 8.75419 5.47945C5.89336 5.30118 3.21836 3.91478 1.3995 1.66287C1.38088 1.63979 1.35268 1.62695 1.32318 1.62993C1.29387 1.63216 1.26769 1.64891 1.25294 1.6744C0.921099 2.24906 0.745777 2.90653 0.745777 3.57535C0.745777 4.73452 1.2675 5.81833 2.15591 6.53349C1.69853 6.47803 1.25183 6.33269 0.849016 6.10696C0.821916 6.09152 0.788179 6.0917 0.761078 6.10752C0.733978 6.12315 0.716833 6.15218 0.716095 6.18382L0.715727 6.2322C0.715727 7.89699 1.8025 9.35876 3.3487 9.84409C2.94145 9.91034 2.51891 9.90587 2.10356 9.82585C2.07295 9.82008 2.04088 9.83069 2.01986 9.85451C1.99903 9.87833 1.99202 9.91164 2.00161 9.94179C2.46526 11.4026 3.75354 12.4271 5.25309 12.5547C4.00224 13.4798 2.5237 13.9672 0.961473 13.9672C0.673694 13.9672 0.383886 13.9499 0.0999786 13.9162C0.0594204 13.9115 0.0192308 13.9359 0.00521981 13.9752C-0.00879122 14.0148 0.00614159 14.0591 0.0411692 14.0816C1.73171 15.176 3.68643 15.7542 5.69425 15.7542C12.2619 15.7542 16.1865 10.3691 16.1865 5.16291C16.1865 5.01794 16.1837 4.87372 16.178 4.72987C16.8865 4.20676 17.4947 3.56642 17.9851 2.82521C18.007 2.79208 18.0046 2.74798 17.979 2.71709Z" fill="white"/>
</svg>
